<svg width="198" height="58" viewBox="0 0 198 58" fill="none" xmlns="http://www.w3.org/2000/svg">
<path d="M81.2359 13.22C86.1759 13.22 90.1659 14.284 93.2059 16.412C96.2839 18.502 97.8229 21.713 97.8229 26.045H86.8219C86.8219 22.625 84.9599 20.915 81.2359 20.915C77.5119 20.915 75.6499 23.062 75.6499 27.356V30.605C75.6499 34.861 77.5879 36.989 81.4639 36.989C85.3399 36.989 87.2779 35.241 87.2779 31.745H97.8229C97.8229 36.115 96.2839 39.364 93.2059 41.492C90.1659 43.62 86.1759 44.684 81.2359 44.684C75.9539 44.684 71.8119 43.354 68.8099 40.694C65.8079 38.034 64.3069 34.12 64.3069 28.952C64.3069 23.784 65.8079 19.87 68.8099 17.21C71.8119 14.55 75.9539 13.22 81.2359 13.22Z" fill="#414141"/>
<path d="M114.09 17.039C115.306 15.823 116.731 14.892 118.365 14.246C119.999 13.562 121.709 13.22 123.495 13.22C126.991 13.22 129.613 14.189 131.361 16.127C133.109 18.065 133.983 20.858 133.983 24.506V44H122.64V25.874C122.64 24.582 122.298 23.556 121.614 22.796C120.968 21.998 120.037 21.599 118.821 21.599C117.415 21.599 116.275 22.055 115.401 22.967C114.527 23.879 114.09 25 114.09 26.33V44H102.747V2.675H114.09V17.039Z" fill="#414141"/>
<path d="M155.643 13.22C160.241 13.22 163.984 13.999 166.872 15.557C169.76 17.077 171.204 19.566 171.204 23.024V34.766C171.204 35.412 171.356 35.944 171.66 36.362C171.964 36.78 172.42 36.989 173.028 36.989H175.08V43.544C174.966 43.62 174.662 43.753 174.168 43.943C173.712 44.095 173.047 44.247 172.173 44.399C171.299 44.589 170.292 44.684 169.152 44.684C166.948 44.684 165.124 44.361 163.68 43.715C162.274 43.031 161.305 42.1 160.773 40.922C159.329 42.062 157.714 42.974 155.928 43.658C154.142 44.342 152.052 44.684 149.658 44.684C142.59 44.684 139.056 41.872 139.056 36.248C139.056 33.322 139.835 31.099 141.393 29.579C142.989 28.021 145.269 26.957 148.233 26.387C151.197 25.817 155.073 25.532 159.861 25.532V24.05C159.861 22.872 159.443 21.979 158.607 21.371C157.809 20.763 156.764 20.459 155.472 20.459C154.294 20.459 153.268 20.668 152.394 21.086C151.558 21.504 151.14 22.169 151.14 23.081V23.309H139.968C139.93 23.119 139.911 22.853 139.911 22.511C139.911 19.661 141.26 17.4 143.958 15.728C146.694 14.056 150.589 13.22 155.643 13.22ZM159.861 30.89C156.631 30.89 154.237 31.251 152.679 31.973C151.159 32.657 150.399 33.588 150.399 34.766C150.399 36.666 151.691 37.616 154.275 37.616C155.757 37.616 157.049 37.217 158.151 36.419C159.291 35.621 159.861 34.633 159.861 33.455V30.89Z" fill="#414141"/>
<path d="M197.902 13.904V21.599H191.518V33.056C191.518 34.424 191.746 35.431 192.202 36.077C192.658 36.685 193.494 36.989 194.71 36.989H197.902V43.658C196.99 43.962 195.812 44.209 194.368 44.399C192.924 44.589 191.67 44.684 190.606 44.684C187.262 44.684 184.678 44.076 182.854 42.86C181.068 41.644 180.175 39.573 180.175 36.647V21.599H175.957V13.904H180.631L183.082 4.784H191.518V13.904H197.902Z" fill="#414141"/>
<path d="M58 43.3957V5.84173C58 2.61543 55.3846 0 52.1583 0H5.84173C2.61543 0 0 2.61543 0 5.84173V52.1583C0 55.3846 2.61543 58 5.84173 58H43.187L58 43.3957Z" fill="#FEFBB2"/>
<path d="M52.04 44.7541H50.6198V45.4024L52.04 44.7541Z" fill="#FFD53E"/>
<path d="M45.5235 50.6198H44.7541V52.1279L45.5235 50.6198Z" fill="#FFD53E"/>
<path d="M7.54182 52.1131C8.40946 52.6743 9.44355 53 10.5537 53H13.2459V50.6198H10.5537C9.9158 50.6198 9.32853 50.4341 8.83435 50.1145L7.54182 52.1131Z" fill="#FFD53E"/>
<path d="M53 13.2459V10.5537C53 9.44355 52.6743 8.40946 52.1131 7.54182L50.1145 8.83435C50.4341 9.32853 50.6198 9.9158 50.6198 10.5537V13.2459H53Z" fill="#FFD53E"/>
<path d="M10.5537 5H13.2459V7.38017H10.5537C9.9158 7.38017 9.32853 7.5659 8.83435 7.88549L7.54182 5.88685C8.40946 5.32574 9.44355 5 10.5537 5Z" fill="#FFD53E"/>
<path d="M5.88685 50.4582C5.32574 49.5905 5 48.5564 5 47.4463V44.7541H7.38017V47.4463C7.38017 48.0842 7.5659 48.6715 7.88549 49.1656L5.88685 50.4582Z" fill="#FFD53E"/>
<path d="M5 42.7599V37.3756H7.38017V42.7599H5Z" fill="#FFD53E"/>
<path d="M5 35.3814V29.9971H7.38017V35.3814H5Z" fill="#FFD53E"/>
<path d="M5 28.0029V22.6186H7.38017V28.0029H5Z" fill="#FFD53E"/>
<path d="M5 20.6244V15.2401H7.38017V20.6244H5Z" fill="#FFD53E"/>
<path d="M5 13.2459V10.5537C5 9.44355 5.32574 8.40946 5.88685 7.54182L7.88549 8.83435C7.5659 9.32853 7.38017 9.9158 7.38017 10.5537V13.2459H5Z" fill="#FFD53E"/>
<path d="M15.2401 5H20.6244V7.38017H15.2401V5Z" fill="#FFD53E"/>
<path d="M22.6186 5H28.0029V7.38017H22.6186V5Z" fill="#FFD53E"/>
<path d="M29.9971 5H35.3814V7.38017H29.9971V5Z" fill="#FFD53E"/>
<path d="M37.3756 5H42.7599V7.38017H37.3756V5Z" fill="#FFD53E"/>
<path d="M44.7541 5H47.4463C48.5564 5 49.5905 5.32574 50.4582 5.88686L49.1656 7.88549C48.6715 7.5659 48.0842 7.38017 47.4463 7.38017H44.7541V5Z" fill="#FFD53E"/>
<path d="M53 15.2401V20.6244H50.6198V15.2401H53Z" fill="#FFD53E"/>
<path d="M53 22.6186V28.0029H50.6198V22.6186H53Z" fill="#FFD53E"/>
<path d="M53 29.9971V35.3814H50.6198V29.9971H53Z" fill="#FFD53E"/>
<path d="M53 37.3756V42.7599H50.6198V37.3756H53Z" fill="#FFD53E"/>
<path d="M42.7599 53H37.3756V50.6198H42.7599V53Z" fill="#FFD53E"/>
<path d="M35.3814 53H29.9971V50.6198H35.3814V53Z" fill="#FFD53E"/>
<path d="M28.0029 53H22.6186V50.6198H28.0029V53Z" fill="#FFD53E"/>
<path d="M20.6244 53H15.2401V50.6198H20.6244V53Z" fill="#FFD53E"/>
<path d="M58 43.3957H49.0288C45.8025 43.3957 43.1871 46.0111 43.1871 49.2374V58L58 43.3957Z" fill="#FFD53E"/>
<path d="M12 39.9673V36.1143L21.7963 27.3633C22.5315 26.7102 23.0505 26.0952 23.3533 25.5184C23.656 24.9415 23.8074 24.4027 23.8074 23.902C23.8074 23.1837 23.6614 22.5469 23.3695 21.9918C23.0775 21.4258 22.6667 20.985 22.1368 20.6694C21.607 20.3429 20.9853 20.1796 20.2717 20.1796C19.5256 20.1796 18.866 20.3537 18.293 20.702C17.7307 21.0395 17.2928 21.4912 16.9792 22.0571C16.6657 22.6122 16.5197 23.2163 16.5413 23.8694H12C12 22.2585 12.3514 20.8653 13.0542 19.6898C13.7571 18.5143 14.7356 17.6054 15.9899 16.9633C17.2441 16.3211 18.7038 16 20.369 16C21.8936 16 23.256 16.3374 24.4562 17.0122C25.6672 17.6762 26.6187 18.6068 27.3107 19.8041C28.0027 21.0014 28.3487 22.3891 28.3487 23.9673C28.3487 25.132 28.1865 26.1007 27.8621 26.8735C27.5378 27.6354 27.0566 28.3429 26.4187 28.9959C25.7807 29.6381 24.9968 30.3673 24.0669 31.1837L17.7415 36.7673L17.3847 35.7878H28.3487V39.9673H12Z" fill="#FFD53E"/>
<path d="M40.4475 40V36.3429H30.2945V32.1959L37.6579 16.4898H42.7182L35.3548 32.1959H40.4475V26.3184H44.924V32.1959H47V36.3429H44.924V40H40.4475Z" fill="#FFD53E"/>
</svg>
