<svg width="14" height="14" viewBox="0 0 14 14" fill="none" xmlns="http://www.w3.org/2000/svg">
<circle cx="7" cy="7" r="7" fill="#C4C4C4"/>
<path d="M4.88114 11H4.80914C4.55314 11 4.42514 10.908 4.42514 10.724C4.42514 10.628 4.59314 10.048 4.92914 8.984H3.95714C3.64514 8.984 3.48914 8.84 3.48914 8.552C3.48914 8.256 3.64114 8.104 3.94514 8.096H5.21714L5.91314 5.888H4.86914C4.55714 5.888 4.40114 5.732 4.40114 5.42C4.40114 5.148 4.55714 5 4.86914 4.976H6.21314C6.36514 4.4 6.54514 3.824 6.75314 3.248C6.84114 2.992 7.02514 2.864 7.30514 2.864H7.37714C7.64114 2.864 7.77314 2.948 7.77314 3.116C7.77314 3.276 7.58514 3.896 7.20914 4.976H8.90114L9.46514 3.248C9.55314 2.992 9.73714 2.864 10.0171 2.864H10.0771C10.3411 2.864 10.4731 2.956 10.4731 3.14C10.4731 3.148 10.2851 3.76 9.90914 4.976H10.9771C11.2891 4.976 11.4451 5.128 11.4451 5.432C11.4451 5.728 11.2891 5.88 10.9771 5.888H9.63314L8.92514 8.096H10.0531C10.3571 8.096 10.5091 8.244 10.5091 8.54C10.5091 8.812 10.3571 8.96 10.0531 8.984H8.63714C8.59714 9.104 8.51314 9.38 8.38514 9.812C8.25714 10.244 8.17314 10.516 8.13314 10.628C8.04514 10.876 7.86114 11 7.58114 11H7.52114C7.24914 11 7.11314 10.908 7.11314 10.724C7.11314 10.668 7.12514 10.604 7.14914 10.532L7.64114 8.984H5.94914C5.74114 9.656 5.56514 10.2 5.42114 10.616C5.33314 10.872 5.15314 11 4.88114 11ZM6.93314 5.888L6.22514 8.096H7.91714C7.97314 7.904 8.09714 7.504 8.28914 6.896C8.48914 6.288 8.60114 5.952 8.62514 5.888H6.93314Z" fill="white"/>
</svg>
